<svg xmlns="http://www.w3.org/2000/svg" width="23" height="24"><path fill="#fff" d="M22.587 23.69h-1.483c-.286-3.666-2.724-6.739-6.08-8.03a8.247 8.247 0 01-3.518.79 8.259 8.259 0 01-3.52-.79c-3.355 1.291-5.793 4.364-6.079 8.03H.424c.264-3.915 2.654-7.258 6.05-8.95-1.894-1.457-3.115-3.714-3.115-6.254C3.36 4.087 7.007.52 11.506.52c4.498 0 8.146 3.566 8.146 7.965 0 2.54-1.22 4.797-3.114 6.255 3.395 1.691 5.786 5.034 6.05 8.95zM18.171 8.487c0-3.6-2.984-6.517-6.665-6.517-3.682 0-6.665 2.917-6.665 6.517 0 3.599 2.983 6.516 6.665 6.516 3.68 0 6.665-2.917 6.665-6.516z"/></svg>