<svg xmlns="http://www.w3.org/2000/svg" width="14" height="14"><path fill="#aeb0b5" d="M3.943.387h5.625c1.083.022 1.989.397 2.718 1.125.73.73 1.104 1.636 1.125 2.72v5.624c-.02 1.084-.396 1.99-1.125 2.719-.73.729-1.635 1.104-2.718 1.125H3.943c-1.084-.021-1.99-.396-2.72-1.125C.495 11.845.12 10.94.1 9.856V4.231c.02-1.083.395-1.99 1.125-2.719C1.953.784 2.859.41 3.943.387zM3.818 1.7c-.688.02-1.256.255-1.704.703-.448.448-.682 1.016-.703 1.703v5.875c.02.687.255 1.255.703 1.703.448.448 1.016.683 1.704.703h5.875c.687-.02 1.254-.255 1.703-.703.448-.448.682-1.016.703-1.703V4.106c-.021-.687-.255-1.255-.703-1.703-.449-.448-1.016-.682-1.703-.703zm6.437 1a.91.91 0 01.578.266.785.785 0 01.235.578c0 .23-.079.422-.235.578a.786.786 0 01-.578.234.786.786 0 01-.578-.234.785.785 0 01-.234-.578c0-.23.078-.422.234-.578a.909.909 0 01.578-.266zm-3.5 1c.938.021 1.724.349 2.36.984.635.636.963 1.422.984 2.36-.021.937-.35 1.724-.985 2.359-.635.636-1.421.964-2.359.984-.937-.02-1.724-.348-2.36-.984-.635-.635-.963-1.422-.984-2.36.02-.937.349-1.723.985-2.359.635-.635 1.422-.963 2.36-.984zm0 1.344c-.562.02-1.031.219-1.406.594s-.563.843-.563 1.406c0 .562.188 1.031.563 1.406.375.375.844.562 1.406.562.563 0 1.031-.187 1.406-.562.375-.375.563-.844.563-1.406 0-.563-.188-1.031-.563-1.406-.375-.375-.843-.573-1.406-.594z" opacity=".6"/></svg>