<svg xmlns="http://www.w3.org/2000/svg" width="11" height="12"><path fill="#aeb0b5" d="M9.88 8.09a4.724 4.724 0 001.031-3.078c-.02-1.416-.52-2.588-1.5-3.515S7.213.086 5.755.044C4.297.086 3.078.57 2.1 1.497 1.12 2.424.62 3.596.6 5.012c0 .875.219 1.688.656 2.438.188.271.427.417.719.437.25-.02.453-.11.61-.265a.785.785 0 00.234-.579c0-.145-.032-.29-.094-.437a2.957 2.957 0 01-.469-1.594c.02-.937.36-1.718 1.016-2.344.656-.625 1.484-.947 2.484-.968.98.021 1.802.343 2.469.968.666.626 1.01 1.407 1.031 2.344a3.08 3.08 0 01-.578 1.922c-.406.574-1.089.87-2.047.89-.333 0-.604-.103-.812-.312-.209-.208-.313-.479-.313-.812.02-.375.14-.745.36-1.11.218-.364.348-.817.39-1.359-.02-.437-.146-.734-.375-.89a1.436 1.436 0 00-.828-.235c-.323 0-.63.136-.922.407-.292.27-.448.76-.469 1.468.02.375.052.677.094.906l.094.344-1.594 4.781v.125c0 .25.088.464.266.641a.87.87 0 00.64.266c.354 0 .615-.146.782-.438h.03l.845-2.843c.479.5 1.072.76 1.78.78 1.48-.062 2.574-.546 3.282-1.452z" opacity=".6"/></svg>