<svg xmlns="http://www.w3.org/2000/svg" width="3700" height="6793"><defs><linearGradient id="a" x1="3700" x2="0" y1="2759" y2="4034" gradientUnits="userSpaceOnUse"><stop offset="0" stop-color="#1f3563"/><stop offset="1" stop-color="#16062a"/></linearGradient></defs><path fill="#152249" d="M3249 5716s451.102 970.169 451 1020c-.103 49.83-722 57-722 57L615 6571 205 5198l1181 1274s197.18-221.72-205-658c-402.18-436.281 321.524-716.44-205-1159-325.84-273.88 164.538-296.876-51-505-325.044-313.864-560.742-353.953-254-517.303V2135.403L0 707 754 8l2249-8s171.125 321.117 78 448c-111.175 151.475-742.344 553.38-1358 692-846.92 190.69-545.874 700.167-160.056 634.38 374.179-63.801 699.865-167.123 736.476 348.526 26.502 373.271 936.392-291.449 794.58-49.907-124.22 211.577 656.284 441.894-155 438.033v845.212c271.987 30.635 536.589 97.994-7 1177.756-543.404 1032.096 244.83 1105.611 207 1096 0 0 93.706 18.086 110 86z"/><path fill="url(#a)" d="M3249 5716s451.102 970.169 451 1020c-.103 49.83-722 57-722 57L615 6571 205 5198l1181 1274s197.18-221.72-205-658c-402.18-436.281 321.524-716.44-205-1159-325.84-273.88 164.538-296.876-51-505-325.044-313.864-560.742-353.953-254-517.303V2135.403L0 707 754 8l2249-8s171.125 321.117 78 448c-111.175 151.475-742.344 553.38-1358 692-846.92 190.69-545.874 700.167-160.056 634.38 374.179-63.801 699.865-167.123 736.476 348.526 26.502 373.271 936.392-291.449 794.58-49.907-124.22 211.577 656.284 441.894-155 438.033v845.212c271.987 30.635 536.589 97.994-7 1177.756-543.404 1032.096 244.83 1105.611 207 1096 0 0 93.706 18.086 110 86z"/></svg>